<?xml version="1.0" encoding="UTF-8"?>
<svg xmlns="http://www.w3.org/2000/svg" width="310" height="64" viewBox="0 0 310 64" fill="none">
  <path d="M29.7324 49.1082V54.0959H34.1883V49.1082C34.1883 43.052 36.0678 40.2016 53.2209 40.2016H62.9394C59.3165 53.8988 46.8428 64 31.998 64C17.1531 64 4.57985 53.8135 1.01797 40.031H28.9176V35.5757H0.201156C0.0670522 34.4014 0 33.2047 0 31.998C0 30.7912 0.0670522 29.5966 0.201156 28.4203H10.6511C19.6787 28.4203 24.7909 27.693 28.2898 25.9153C32.2763 23.8938 34.1355 20.4401 34.1355 15.0583V10.0667H29.6796V15.0583C29.6796 21.1105 27.8001 23.965 10.6511 23.965H1.01594C4.57985 10.1845 17.0982 0 32 0C46.9018 0 59.5238 10.2617 63.0267 24.1295H34.9503V28.5849H63.8171C63.937 29.7063 64 30.842 64 31.9959C64 33.2657 63.9268 34.5111 63.7806 35.7422H53.2189C37.6405 35.7422 29.7304 37.8084 29.7304 49.1042L29.7324 49.1082Z" fill="#F16E00"></path>
  <path d="M75.0801 17.24H84.9801C89.9521 17.24 94.5281 18.736 94.5281 24.324C94.5281 27.492 92.7241 29.56 90.1281 30.66C93.7801 31.408 95.9801 33.784 95.9801 37.656C95.9801 43.376 92.0201 46.5 84.7161 46.5H75.0801V17.24ZM83.7481 29.208C87.4881 29.208 89.0281 27.492 89.0281 25.16C89.0281 21.948 86.9161 21.288 84.0561 21.288H80.4481V29.208H83.7481ZM84.6281 42.364C88.9401 42.364 90.3041 40.384 90.3041 37.7C90.3041 34.752 88.2801 33.124 84.8041 33.124H80.4481V42.364H84.6281Z" fill="#333333"></path>
  <path d="M107.82 47.16C101.176 47.16 99.2395 42.144 99.2395 36.38C99.2395 28.636 103.068 23.708 110.636 23.708C112.132 23.708 115.344 24.06 118.468 25.248V42.276L118.908 46.5H114.376L114.068 44.168L113.892 44.124C112.704 45.84 110.768 47.16 107.82 47.16ZM108.964 43.288C111.78 43.288 113.32 41.396 113.32 39.504V28.108C112.66 27.8 111.34 27.492 109.976 27.492C105.796 27.492 104.388 31.452 104.388 36.204C104.388 39.812 105.312 43.288 108.964 43.288Z" fill="#333333"></path>
  <path d="M124.102 27.888L123.706 24.368H128.018L128.546 27.536C129.514 25.072 131.67 23.708 133.87 23.708C135.19 23.708 136.554 24.016 137.39 24.544L136.466 28.9C135.586 28.46 134.486 28.108 133.342 28.108C130.966 28.108 129.426 30 129.338 32.552V46.5H124.102V27.888Z" fill="#333333"></path>
  <path d="M140.43 27.888L140.034 24.368H144.346L144.874 27.536C145.842 25.072 147.998 23.708 150.198 23.708C151.518 23.708 152.882 24.016 153.718 24.544L152.794 28.9C151.914 28.46 150.814 28.108 149.67 28.108C147.294 28.108 145.754 30 145.666 32.552V46.5H140.43V27.888Z" fill="#333333"></path>
  <path d="M159.179 20.936C157.375 20.936 156.187 19.704 156.187 17.988C156.187 16.404 157.375 15.084 159.179 15.084C160.983 15.084 162.215 16.36 162.215 17.988C162.215 19.66 160.939 20.936 159.179 20.936ZM156.583 24.368H161.819V46.5H156.583V24.368Z" fill="#333333"></path>
  <path d="M176.48 47.16C169.22 47.16 166.228 42.496 166.228 35.896C166.228 29.428 169.968 23.708 176.964 23.708C181.276 23.708 183.96 25.908 183.96 29.824C183.96 36.6 176.348 37.656 171.552 37.7C171.772 40.428 173.312 43.156 177.052 43.156C179.648 43.156 181.54 41.968 182.596 41.22L184.224 44.696C183.52 45.312 180.616 47.16 176.48 47.16ZM171.376 33.916C173.752 33.96 179.296 33.432 179.296 30.044C179.296 28.416 178.24 27.448 176.656 27.448C173.136 27.448 171.508 30.704 171.376 33.916Z" fill="#333333"></path>
  <path d="M188.169 27.888L187.773 24.368H192.085L192.613 27.536C193.581 25.072 195.737 23.708 197.937 23.708C199.257 23.708 200.621 24.016 201.457 24.544L200.533 28.9C199.653 28.46 198.553 28.108 197.409 28.108C195.033 28.108 193.493 30 193.405 32.552V46.5H188.169V27.888Z" fill="#333333"></path>
  <path d="M204.717 17.24H214.617C219.589 17.24 224.165 18.736 224.165 24.324C224.165 27.492 222.361 29.56 219.765 30.66C223.417 31.408 225.617 33.784 225.617 37.656C225.617 43.376 221.657 46.5 214.353 46.5H204.717V17.24ZM213.385 29.208C217.125 29.208 218.665 27.492 218.665 25.16C218.665 21.948 216.553 21.288 213.693 21.288H210.085V29.208H213.385ZM214.265 42.364C218.577 42.364 219.941 40.384 219.941 37.7C219.941 34.752 217.917 33.124 214.441 33.124H210.085V42.364H214.265Z" fill="#333333"></path>
  <path d="M230.02 27.888L229.624 24.368H233.936L234.464 27.536C235.432 25.072 237.588 23.708 239.788 23.708C241.108 23.708 242.472 24.016 243.308 24.544L242.384 28.9C241.504 28.46 240.404 28.108 239.26 28.108C236.884 28.108 235.344 30 235.256 32.552V46.5H230.02V27.888Z" fill="#333333"></path>
  <path d="M254.597 47.16C247.337 47.16 244.345 42.496 244.345 35.896C244.345 29.428 248.085 23.708 255.081 23.708C259.393 23.708 262.077 25.908 262.077 29.824C262.077 36.6 254.465 37.656 249.669 37.7C249.889 40.428 251.429 43.156 255.169 43.156C257.765 43.156 259.657 41.968 260.713 41.22L262.341 44.696C261.637 45.312 258.733 47.16 254.597 47.16ZM249.493 33.916C251.869 33.96 257.413 33.432 257.413 30.044C257.413 28.416 256.357 27.448 254.773 27.448C251.253 27.448 249.625 30.704 249.493 33.916Z" fill="#333333"></path>
  <path d="M273.722 47.16C267.078 47.16 265.142 42.144 265.142 36.38C265.142 28.636 268.97 23.708 276.538 23.708C278.034 23.708 281.246 24.06 284.37 25.248V42.276L284.81 46.5H280.278L279.97 44.168L279.794 44.124C278.606 45.84 276.67 47.16 273.722 47.16ZM274.866 43.288C277.682 43.288 279.222 41.396 279.222 39.504V28.108C278.562 27.8 277.242 27.492 275.878 27.492C271.698 27.492 270.29 31.452 270.29 36.204C270.29 39.812 271.214 43.288 274.866 43.288Z" fill="#333333"></path>
  <path d="M289.961 15.92H295.109V37.876H295.329L303.293 24.368H308.793L302.809 34.224L308.617 46.5H303.073L299.333 38.58L294.537 46.5H289.961V15.92Z" fill="#333333"></path>
</svg>
